<svg id="bee" xmlns="http://www.w3.org/2000/svg" width="19.553" height="22.247" viewBox="0 0 19.553 22.247">
  <path id="Path_1" data-name="Path 1" d="M160.125.652a.652.652,0,1,0-1.3,0,1.945,1.945,0,0,1-1.137,1.754,2.593,2.593,0,0,0-4.243,0A1.945,1.945,0,0,1,152.3.652a.652.652,0,0,0-1.3,0,3.257,3.257,0,0,0,1.983,2.989,2.544,2.544,0,0,0-.027.27,2.59,2.59,0,0,0,.2.995,3.411,3.411,0,0,1,4.816,0,2.59,2.59,0,0,0,.2-.995,2.548,2.548,0,0,0-.027-.27A3.257,3.257,0,0,0,160.125.652Z" transform="translate(-145.786)" fill="#c8ae5d"/>
  <path id="Path_2" data-name="Path 2" d="M201.214,123.259c0-1.8-1.169-3.259-2.607-3.259S196,121.462,196,123.259s1.169,3.3,2.607,3.3S201.214,125.056,201.214,123.259Z" transform="translate(-188.831 -114.786)" fill="#c8ae5d"/>
  <path id="Path_3" data-name="Path 3" d="M31.652,184.371a9.825,9.825,0,0,0,8.65-5.314,4.413,4.413,0,0,1-3.436-4.55,5.291,5.291,0,0,1,.083-.931A11.554,11.554,0,0,0,31,183.72.651.651,0,0,0,31.652,184.371Z" transform="translate(-31 -166.035)" fill="#c8ae5d"/>
  <path id="Path_4" data-name="Path 4" d="M270.272,173.577a5.294,5.294,0,0,1,.083.931,4.413,4.413,0,0,1-3.436,4.55,9.825,9.825,0,0,0,8.65,5.314.651.651,0,0,0,.652-.652A11.554,11.554,0,0,0,270.272,173.577Z" transform="translate(-256.668 -166.035)" fill="#c8ae5d"/>
  <path id="Path_5" data-name="Path 5" d="M185.849,423.3h5.458a8.586,8.586,0,0,0,.334-1.3h-6.125A8.588,8.588,0,0,0,185.849,423.3Z" transform="translate(-178.801 -403.663)" fill="#c8ae5d"/>
  <path id="Path_6" data-name="Path 6" d="M212.326,482h-4.157a2.309,2.309,0,0,0,4.157,0Z" transform="translate(-200.471 -461.056)" fill="#c8ae5d"/>
  <path id="Path_7" data-name="Path 7" d="M211.592,340.89a11.278,11.278,0,0,1-2.017,2.221h4.034A11.281,11.281,0,0,1,211.592,340.89Z" transform="translate(-201.816 -326.078)" fill="#c8ae5d"/>
</svg>
