<svg xmlns="http://www.w3.org/2000/svg" width="12.676" height="12.939" viewBox="0 0 12.676 12.939">
  <g id="earth-globe-with-continents-maps" transform="translate(-0.468)">
    <path id="Path_25" data-name="Path 25" d="M11.728,4.6l.113.081h.1v-.2l.331-.032.314.234h.516l.036-.033q-.078-.261-.175-.513l-.337.006-.169-.186-.033-.3-.173.095-.093.365-.25-.266L11.9,3.6l-.241-.208L11.573,3.3h-.28l.088.249.337.188.059.062-.073.037,0,.2-.164.069-.14-.031-.088-.124.228.012.062-.083-.5-.341-.039-.145-.205.186-.208-.043-.316.411-.062.161-.2.018-.3,0-.179-.084-.053-.356.064-.17.3-.067.332.067.041-.184L10.137,3.3l.048-.287.335-.052.234-.33.242-.041.218.032h.08l-.044-.311-.265.107-.093-.232-.154-.021-.029-.159.125-.137.3-.117.077-.137a6.45,6.45,0,0,0-8.072-.377l.326,0,.145.08.274.059.021.108.436.016L4.28,1.36l-.387-.011.091-.086-.032-.1H3.6L3.984.876H4.35l.172.237.285.016L4.979.962l.129.064-.237.231-.312.006a1.084,1.084,0,0,1,.027.226l.4-.011.043-.107L5.3,1.355l.032-.161-.161-.027.054-.145L5.349.984,5.779,1l-.237.215.038.167.247.038-.016-.3L6.048,1,6.467.951l.607.269v.231l.194.048-.1.183H6.9l-.081.21L6.19,1.744l.492-.262-.188-.159-.425.054-.037.039h0l-.006.009L5.9,1.55l-.2.017.016.1.071.029,0,.033-.165.023-.012.1-.157.008-.028-.19-.282.086-.577.338.065.238.161.105.322.044v.366l.149-.024L5.4,2.534l.343-.109v-.44l.191-.144.461.109-.032.291h.124l.339-.167.016.381.247.15-.01.226-.236.08.016.075.285.13-.006.156-.082.007a.023.023,0,0,0,0,0l-.359-.111L6.676,3.05h0l.105-.072V2.873l-.113-.028-.028.1-.2.031-.02-.006v.01l-.069.01L6.3,2.873l-.065-.028H6.091L6.027,2.9v.117l.121.04.119.017-.027.012L6.132,3.2l-.048-.06-.105-.028-.287.269.037.031-.423.234-.4.414-.027.184-.4.262-.2.2.022.4L4.032,4.98l0-.233H3.271l-.4.2L2.7,5.264l-.068.251.111.243.311.038.495-.331.043.164-.151.285.377.064.038.582.516.088L4.7,6.269l.4.081.14.194.382-.023.011-.113.21.1.237.371.408.006.151.264.021.322.452.172.57.006.167.274.253.081-.048.226-.277.352L7.7,9.363l-.25.2-.371-.011-.123.215.092.4-.4.516-.129.237-.384.185-.253.039-.01.107.177.051-.021.116-.159.153.1.122.191.005-.011.147-.051.145-.016.118.283.238-.038.124-.385-.007-.383-.334-.3-.525.042-.506-.226-.3.091-.51-.134-.037V9.141s-.376-.285-.4-.285-.2-.048-.2-.048L4.387,8.6,3.9,7.985l.048-.22.016-.36L4.3,7.168l-.048-.4-.494-.037-.387-.441L3.1,6.21,2.92,6.178l.021-.161-.226-.032v.091l-.565-.141-.227-.348.093-.168L1.659,4.9,1.6,4.515H1.452l.048.371.247.382-.027.151-.21-.032-.258-.44V4.435L.984,4.306V3.938a6.467,6.467,0,0,0,10.971,6.61h-.213v-.43l-.247-.332V9.268l-.188-.188-.017-.215.24-.457-.454-.8.053-.544L10.72,7.02l-.15-.15H10.3L10.156,7H9.672l-.016.043H9.386l-.618-.7.005-.548.1-.037.038-.21H8.768l-.059-.22.715-.516V4.44l.35-.194.142.014H10.2l.225-.121.726-.057v.371ZM9.914,2.292,9.973,2.2l.213-.043.053.258.113.183.075.086.137.053-.129.154-.25.024H10l.021-.223.156-.032-.013-.1-.146-.091-.1-.07v-.1Zm-.349.4.129-.207.174-.041.124.054-.011.14-.266.188h-.15V2.7Zm-3.515.8L5.915,3.5l.007-.094.06-.075.081.064Zm.472-.165-.092.008-.019.089-.071.044-.114.01c0-.027-.006-.047-.006-.047H6.177v-.1h.185l.038-.1h.074l.084.017Z" fill="#fff"/>
  </g>
</svg>
