<svg id="facebook" xmlns="http://www.w3.org/2000/svg" width="33.776" height="33.776" viewBox="0 0 33.776 33.776">
  <g id="Group_5" data-name="Group 5">
    <g id="Group_4" data-name="Group 4">
      <path id="Path_9" data-name="Path 9" d="M210.989,154.343v1.535h-1.535v2.3h1.535v6.909h3.071v-6.909H216.1l.261-2.3h-2.3v-1.343c0-.622.061-.952,1.021-.952h1.282v-2.311h-2.057C211.849,151.272,210.989,152.424,210.989,154.343Z" transform="translate(-195.636 -141.293)" fill="#c8ae5d"/>
      <path id="Path_10" data-name="Path 10" d="M16.888,0A16.888,16.888,0,1,0,33.776,16.888,16.888,16.888,0,0,0,16.888,0Zm0,32.241A15.353,15.353,0,1,1,32.241,16.888,15.353,15.353,0,0,1,16.888,32.241Z" fill="#c8ae5d"/>
    </g>
  </g>
</svg>
