<svg xmlns="http://www.w3.org/2000/svg" width="363" height="19" viewBox="0 0 363 19">
  <g id="Group_1" data-name="Group 1" transform="translate(-6.5 -398)">
    <path id="Shape" d="M3.5,1h21a2.946,2.946,0,0,1,3,3v6a2.946,2.946,0,0,1-3,3H3.5a2.946,2.946,0,0,1-3-3V4A2.946,2.946,0,0,1,3.5,1Z" transform="translate(339 401)" fill="none" stroke="#000" stroke-width="1"/>
    <path id="Shape-2" data-name="Shape" d="M3,2.5H17.5v9H3a.945.945,0,0,1-1-1v-7H2A.945.945,0,0,1,3,2.5Z" transform="translate(339 401)"/>
    <path id="Shape-3" data-name="Shape" d="M29,4.5h0A1.538,1.538,0,0,1,30.5,6V8h0A1.538,1.538,0,0,1,29,9.5h0Z" transform="translate(339 401)"/>
    <text id="_58_" data-name="58 %" transform="translate(304 413)" font-size="14" font-family="SegoeUI, Segoe UI"><tspan x="0" y="0">58 %</tspan></text>
    <path id="Bluetooth_Icon" data-name="Bluetooth Icon" d="M4.4,11.9V8.3l1.7,1.9L4.4,11.9ZM6.2,4.8,4.4,6.6V3.2L6.2,4.8ZM4.8,7.5,7.4,4.8,3.5,1H3.4V6.3L.8,3.5,0,4.3,3.2,7.5,0,10.7l.8.8L3.5,8.7V14h.2l3.9-3.9L4.8,7.5Z" transform="translate(289 400)"/>
    <path id="Lock_Icon" data-name="Lock Icon" d="M185,9V8a3,3,0,0,1,6,0V9h0a1,1,0,0,1,1,1v4a1.075,1.075,0,0,1-1,1h-6a1,1,0,0,1-1-1V10a1,1,0,0,1,1-1Zm1,0h4V8a2,2,0,0,0-4,0Z" transform="translate(0 396)"/>
    <path id="Wifi" d="M61.5,8.9a9.929,9.929,0,0,1,6.3,2.3L69,9.9a11.148,11.148,0,0,0-15,0l1.2,1.3a9.4,9.4,0,0,1,6.3-2.3Zm0,3a5.56,5.56,0,0,1,3.8,1.4L66.5,12a8.134,8.134,0,0,0-5-1.9,7.392,7.392,0,0,0-5,1.9l1.2,1.3a5.56,5.56,0,0,1,3.8-1.4Zm2.6,2.6a4,4,0,0,0-2.6-1,4.525,4.525,0,0,0-2.6.9l2.6,2.8,2.6-2.7Z" transform="translate(0 396)"/>
    <text id="GS" transform="translate(29 413)" font-size="14" font-family="SegoeUI, Segoe UI"><tspan x="0" y="0">GS</tspan></text>
    <path id="Signal_Icon" data-name="Signal Icon" d="M22,6.5h2.5A.472.472,0,0,1,25,7V17.5a.472.472,0,0,1-.5.5H22a.472.472,0,0,1-.5-.5V7a.472.472,0,0,1,.5-.5ZM17,9h2.5a.472.472,0,0,1,.5.5v8a.472.472,0,0,1-.5.5H17a.472.472,0,0,1-.5-.5v-8A.472.472,0,0,1,17,9Zm-5,2.5h2.5a.472.472,0,0,1,.5.5v5.5a.472.472,0,0,1-.5.5H12a.472.472,0,0,1-.5-.5V12A.472.472,0,0,1,12,11.5ZM7,13H9.5a.472.472,0,0,1,.5.5v4a.472.472,0,0,1-.5.5H7a.472.472,0,0,1-.5-.5v-4A.472.472,0,0,1,7,13Z" transform="translate(0 396)"/>
  </g>
</svg>
