<svg xmlns="http://www.w3.org/2000/svg" width="141.976" height="33.776" viewBox="0 0 141.976 33.776">
  <g id="Group_25" data-name="Group 25" transform="translate(-132.058 -2950.703)">
    <g id="facebook" transform="translate(132.058 2950.703)">
      <g id="Group_5" data-name="Group 5">
        <g id="Group_4" data-name="Group 4">
          <path id="Path_9" data-name="Path 9" d="M210.989,154.343v1.535h-1.535v2.3h1.535v6.909h3.071v-6.909H216.1l.261-2.3h-2.3v-1.343c0-.622.061-.952,1.021-.952h1.282v-2.311h-2.057C211.849,151.272,210.989,152.424,210.989,154.343Z" transform="translate(-195.636 -141.293)" fill="#c8ae5d"/>
          <path id="Path_10" data-name="Path 10" d="M16.888,0A16.888,16.888,0,1,0,33.776,16.888,16.888,16.888,0,0,0,16.888,0Zm0,32.241A15.353,15.353,0,1,1,32.241,16.888,15.353,15.353,0,0,1,16.888,32.241Z" fill="#c8ae5d"/>
        </g>
      </g>
    </g>
    <g id="instagram" transform="translate(186.158 2950.703)">
      <g id="Group_7" data-name="Group 7">
        <g id="Group_6" data-name="Group 6">
          <path id="Path_11" data-name="Path 11" d="M16.888,0A16.888,16.888,0,1,0,33.776,16.888,16.888,16.888,0,0,0,16.888,0Zm0,32.241A15.353,15.353,0,1,1,32.241,16.888,15.353,15.353,0,0,1,16.888,32.241Z" fill="#c8ae5d"/>
          <path id="Path_12" data-name="Path 12" d="M151.919,139.636h-9.212a3.071,3.071,0,0,0-3.071,3.071v9.212a3.071,3.071,0,0,0,3.071,3.071h9.212a3.071,3.071,0,0,0,3.071-3.071v-9.212A3.071,3.071,0,0,0,151.919,139.636Zm-1.535,2.3h2.3v2.3h-2.3Zm-3.071,2.3a3.071,3.071,0,1,1-3.071,3.071A3.071,3.071,0,0,1,147.313,144.242Zm6.141,7.676a1.535,1.535,0,0,1-1.535,1.535h-9.212a1.535,1.535,0,0,1-1.535-1.535v-5.374h1.612a4.606,4.606,0,1,0,9.135.768,4.549,4.549,0,0,0-.077-.768h1.612v5.373Z" transform="translate(-130.425 -130.424)" fill="#c8ae5d"/>
        </g>
      </g>
    </g>
    <g id="twitter" transform="translate(240.258 2950.703)">
      <g id="Group_9" data-name="Group 9">
        <g id="Group_8" data-name="Group 8">
          <path id="Path_13" data-name="Path 13" d="M166.2,163.355a6.378,6.378,0,0,1-2,.768,3.17,3.17,0,0,0-2.3-.983,3.124,3.124,0,0,0-3.147,3.071,3.071,3.071,0,0,0,.084.706,8.989,8.989,0,0,1-6.494-3.239,3.032,3.032,0,0,0,.975,4.115,3.178,3.178,0,0,1-1.428-.392v.038a3.117,3.117,0,0,0,2.526,3.071,3.217,3.217,0,0,1-1.42.054,3.147,3.147,0,0,0,2.94,2.149,6.379,6.379,0,0,1-3.892,1.343,6.531,6.531,0,0,1-.768-.046,9.02,9.02,0,0,0,4.829,1.4,8.828,8.828,0,0,0,8.988-8.665q0-.077,0-.155v-.4a6.38,6.38,0,0,0,1.535-1.6,6.37,6.37,0,0,1-1.812.491A3.124,3.124,0,0,0,166.2,163.355Z" transform="translate(-141.295 -152.377)" fill="#c8ae5d"/>
          <path id="Path_14" data-name="Path 14" d="M16.888,0A16.888,16.888,0,1,0,33.776,16.888,16.888,16.888,0,0,0,16.888,0Zm0,32.241A15.353,15.353,0,1,1,32.241,16.888,15.353,15.353,0,0,1,16.888,32.241Z" fill="#c8ae5d"/>
        </g>
      </g>
    </g>
  </g>
</svg>
