<svg id="instagram" xmlns="http://www.w3.org/2000/svg" width="33.776" height="33.776" viewBox="0 0 33.776 33.776">
  <g id="Group_7" data-name="Group 7">
    <g id="Group_6" data-name="Group 6">
      <path id="Path_11" data-name="Path 11" d="M16.888,0A16.888,16.888,0,1,0,33.776,16.888,16.888,16.888,0,0,0,16.888,0Zm0,32.241A15.353,15.353,0,1,1,32.241,16.888,15.353,15.353,0,0,1,16.888,32.241Z" fill="#c8ae5d"/>
      <path id="Path_12" data-name="Path 12" d="M151.919,139.636h-9.212a3.071,3.071,0,0,0-3.071,3.071v9.212a3.071,3.071,0,0,0,3.071,3.071h9.212a3.071,3.071,0,0,0,3.071-3.071v-9.212A3.071,3.071,0,0,0,151.919,139.636Zm-1.535,2.3h2.3v2.3h-2.3Zm-3.071,2.3a3.071,3.071,0,1,1-3.071,3.071A3.071,3.071,0,0,1,147.313,144.242Zm6.141,7.676a1.535,1.535,0,0,1-1.535,1.535h-9.212a1.535,1.535,0,0,1-1.535-1.535v-5.374h1.612a4.606,4.606,0,1,0,9.135.768,4.549,4.549,0,0,0-.077-.768h1.612v5.373Z" transform="translate(-130.425 -130.424)" fill="#c8ae5d"/>
    </g>
  </g>
</svg>
