<svg xmlns="http://www.w3.org/2000/svg" width="24.538" height="20.331" viewBox="0 0 24.538 20.331">
  <g id="shopping-cart" transform="translate(-5.125 -20.491)">
    <path id="Path_26" data-name="Path 26" d="M24.1,20.519H17.947a1.216,1.216,0,1,0,0,2.431h6.285a3.192,3.192,0,0,1,3.129,3.129v4.474a3.192,3.192,0,0,1-3.129,3.129H17.947a3.112,3.112,0,0,1-3.026-2.3l-2.554-8.589a3.332,3.332,0,0,0-3.129-2.3H6.34a1.216,1.216,0,1,0,0,2.431h2.9a.919.919,0,0,1,.853.595l2.528,8.615a5.557,5.557,0,0,0,5.328,4.112H24.1a5.619,5.619,0,0,0,5.561-5.561v-4.5A5.559,5.559,0,0,0,24.1,20.519Z" fill="#c8ae5d"/>
    <path id="Path_27" data-name="Path 27" d="M42.873,89.7h-.957a1.216,1.216,0,1,0,0,2.431h.957a1.216,1.216,0,1,0,0-2.431Z" transform="translate(-26.374 -51.309)" fill="#c8ae5d"/>
    <path id="Path_28" data-name="Path 28" d="M84.873,89.7h-.957a1.216,1.216,0,0,0,0,2.431h.957a1.154,1.154,0,0,0,1.216-1.216A1.14,1.14,0,0,0,84.873,89.7Z" transform="translate(-57.512 -51.309)" fill="#c8ae5d"/>
  </g>
</svg>
