<svg id="twitter" xmlns="http://www.w3.org/2000/svg" width="33.776" height="33.776" viewBox="0 0 33.776 33.776">
  <g id="Group_9" data-name="Group 9">
    <g id="Group_8" data-name="Group 8">
      <path id="Path_13" data-name="Path 13" d="M166.2,163.355a6.378,6.378,0,0,1-2,.768,3.17,3.17,0,0,0-2.3-.983,3.124,3.124,0,0,0-3.147,3.071,3.071,3.071,0,0,0,.084.706,8.989,8.989,0,0,1-6.494-3.239,3.032,3.032,0,0,0,.975,4.115,3.178,3.178,0,0,1-1.428-.392v.038a3.117,3.117,0,0,0,2.526,3.071,3.217,3.217,0,0,1-1.42.054,3.147,3.147,0,0,0,2.94,2.149,6.379,6.379,0,0,1-3.892,1.343,6.531,6.531,0,0,1-.768-.046,9.02,9.02,0,0,0,4.829,1.4,8.828,8.828,0,0,0,8.988-8.665q0-.077,0-.155v-.4a6.38,6.38,0,0,0,1.535-1.6,6.37,6.37,0,0,1-1.812.491A3.124,3.124,0,0,0,166.2,163.355Z" transform="translate(-141.295 -152.377)" fill="#c8ae5d"/>
      <path id="Path_14" data-name="Path 14" d="M16.888,0A16.888,16.888,0,1,0,33.776,16.888,16.888,16.888,0,0,0,16.888,0Zm0,32.241A15.353,15.353,0,1,1,32.241,16.888,15.353,15.353,0,0,1,16.888,32.241Z" fill="#c8ae5d"/>
    </g>
  </g>
</svg>
